<svg xmlns="http://www.w3.org/2000/svg" viewBox="0 0 248.39 248.39"><defs><style>.cls-1{fill:#84cfed;}.cls-2{fill:#3f3f3f;}.cls-3{fill:#bccf00;}.cls-4{fill:#2b608b;}.cls-5{fill:#009ba4;}</style></defs><g id="Layer_2" data-name="Layer 2"><g id="Layer_1-2" data-name="Layer 1"><rect class="cls-1" x="143.77" y="106.61" width="34.62" height="34.62" transform="translate(-40.45 150.2) rotate(-45)"/><rect class="cls-2" x="94.21" y="30.85" width="34.62" height="86.98" transform="translate(-19.91 100.63) rotate(-45)"/><rect class="cls-3" x="174.77" y="75.44" width="34.94" height="34.62" transform="translate(-9.28 163.1) rotate(-45)"/><rect class="cls-2" x="67.59" y="156.35" width="87.5" height="34.62" transform="translate(-90.19 129.59) rotate(-45)"/><rect class="cls-4" x="175.07" y="137.54" width="34.62" height="35.34" transform="translate(-53.41 181.5) rotate(-45)"/><rect class="cls-2" x="17.98" y="80.51" width="87.5" height="87.1" transform="translate(-69.64 79.99) rotate(-45)"/><rect class="cls-2" x="98.88" y="187.29" width="87.5" height="35.34" transform="translate(-103.15 160.89) rotate(-45)"/><rect class="cls-2" x="125.17" y="-0.4" width="34.94" height="87.1" transform="translate(11.27 113.5) rotate(-45)"/><rect class="cls-5" x="206.07" y="106.39" width="34.94" height="35.34" transform="translate(-22.25 194.41) rotate(-45)"/></g></g></svg>