<?xml version="1.0" encoding="UTF-8"?><svg id="Ebene_2" xmlns="http://www.w3.org/2000/svg" viewBox="0 0 182.28 143.45"><defs><style>.cls-1{fill:#161616;}</style></defs><g id="Ebene_1-2"><g><path class="cls-1" d="M62.02,43.08c.34-.56,.79-.95,1.34-1.18s1.12-.33,1.7-.33c.52,0,1.06,.05,1.61,.16,.55,.11,1.09,.27,1.61,.47l1.27-4.98c-.96-.22-1.94-.4-2.93-.53s-1.94-.2-2.86-.2c-1.57,0-3.02,.31-4.34,.92-1.33,.61-2.39,1.57-3.2,2.86-.8,1.3-1.21,2.97-1.21,5.02v3.83h-4.43v4.28h4.43v24.85h6.48v-24.85h5.55v-4.28h-5.55v-3.71c0-1,.17-1.79,.51-2.35Z"/><path class="cls-1" d="M81.4,65.54c-1.2-2.58-1.81-5.33-1.81-8.16,0-1.91,.27-3.78,.8-5.54,.53-1.78,1.35-3.55,2.42-5.25,1.08-1.72,2.45-3.44,4.08-5.13l.5-.52-4.32-3.14-.38,.34c-3.08,2.74-5.41,5.77-6.91,9.01-1.5,3.24-2.27,6.68-2.27,10.24s.76,6.98,2.27,10.22c1.5,3.23,3.82,6.28,6.91,9.05l.38,.34,4.31-3.24-.5-.51c-2.44-2.51-4.28-5.1-5.49-7.69Z"/><polygon class="cls-1" points="101.15 57.45 109.73 46.22 102.48 46.22 97.63 52.89 92.56 46.22 85.3 46.22 93.89 57.44 85.29 68.56 92.57 68.56 97.36 61.87 102.49 68.56 109.71 68.56 101.15 57.45"/><path class="cls-1" d="M119.24,47.14c-1.51-3.23-3.83-6.26-6.89-9l-.38-.33-4.38,3.13,.51,.52c1.63,1.69,3,3.41,4.09,5.13,1.08,1.72,1.9,3.48,2.44,5.26,.54,1.77,.82,3.63,.82,5.54,0,2.83-.62,5.58-1.83,8.16-1.23,2.6-3.08,5.19-5.52,7.7l-.5,.52,4.37,3.24,.38-.35c2.03-1.84,3.75-3.81,5.11-5.86,1.36-2.06,2.39-4.23,3.06-6.46,.67-2.23,1.01-4.56,1.01-6.94,0-3.56-.77-7-2.28-10.24Z"/></g><path class="cls-1" d="M131.37,92.54c7.57-9.72,12.08-21.93,12.08-35.16,0-17.12-7.54-32.52-19.48-43.04-2.84-2.5-5.91-4.72-9.21-6.63-4.45-2.58-9.26-4.57-14.35-5.88-4.59-1.2-9.39-1.83-14.35-1.83H0V143.45H114.76v-36.41c2.26-1.31,4.42-2.76,6.47-4.37l40.77,40.77h20.27l-50.91-50.91Zm-30.95,36.56H14.35V14.35H48.17c-11.94,10.52-19.48,25.92-19.48,43.04,0,31.64,25.74,57.38,57.38,57.38,4.96,0,9.75-.64,14.35-1.83v16.18Zm20.71-46.81c-1.83,2.61-3.97,5-6.36,7.11-1.2,1.1-2.45,2.1-3.78,3.03-3.22,2.31-6.77,4.18-10.57,5.51-4.5,1.61-9.32,2.47-14.35,2.47-23.73,0-43.04-19.3-43.04-43.04S62.34,14.35,86.07,14.35c5.02,0,9.85,.86,14.35,2.47,5.34,1.88,10.22,4.81,14.35,8.54,8.8,7.86,14.35,19.3,14.35,32.02,0,9.28-2.95,17.88-7.99,24.91Z"/></g></svg>