<?xml version="1.0" encoding="UTF-8"?><svg id="Ebene_2" xmlns="http://www.w3.org/2000/svg" viewBox="0 0 182.28 143.45"><defs><style>.cls-1{fill:#161616;}</style></defs><g id="Ebene_1-2"><g><polygon class="cls-1" points="72.84 47.83 68.64 42.94 51.64 55.33 51.43 55.48 51.43 60.8 68.64 73.26 72.84 68.37 58.26 58.13 72.84 47.83"/><polygon class="cls-1" points="76.45 78.61 82.94 78.61 96.26 36.18 89.7 36.18 76.45 78.61"/><polygon class="cls-1" points="103.48 42.94 99.25 47.83 113.78 58.13 99.25 68.37 103.48 73.26 120.68 60.8 120.68 55.48 103.48 42.94"/></g><path class="cls-1" d="M131.37,92.54c7.57-9.72,12.08-21.93,12.08-35.16,0-17.12-7.54-32.52-19.48-43.04-2.84-2.5-5.91-4.72-9.21-6.63-4.45-2.58-9.26-4.57-14.35-5.88-4.59-1.2-9.39-1.83-14.35-1.83H0V143.45H114.76v-36.41c2.26-1.31,4.42-2.76,6.47-4.37l40.77,40.77h20.27l-50.91-50.91Zm-30.95,36.56H14.35V14.35H48.17c-11.94,10.52-19.48,25.92-19.48,43.04,0,31.64,25.74,57.38,57.38,57.38,4.96,0,9.75-.64,14.35-1.83v16.18Zm20.71-46.81c-1.83,2.61-3.97,5-6.36,7.11-1.2,1.1-2.45,2.1-3.78,3.03-3.22,2.31-6.77,4.18-10.57,5.51-4.5,1.61-9.32,2.47-14.35,2.47-23.73,0-43.04-19.3-43.04-43.04S62.34,14.35,86.07,14.35c5.02,0,9.85,.86,14.35,2.47,5.34,1.88,10.22,4.81,14.35,8.54,8.8,7.86,14.35,19.3,14.35,32.02,0,9.28-2.95,17.88-7.99,24.91Z"/></g></svg>